<svg width="44" height="44" viewBox="0 0 44 44" fill="none" xmlns="http://www.w3.org/2000/svg">
<path d="M43.0477 7.77379C42.9025 7.42344 42.5608 7.19516 42.1816 7.19516H37.2563L37.786 6.66548C38.152 6.29948 38.152 5.70585 37.786 5.33976C37.4199 4.97376 36.8264 4.97376 36.4602 5.33976L35.9238 5.8762V0.937456C35.9238 0.558426 35.6953 0.21652 35.3452 0.0713954C34.9948 -0.0737293 34.5916 0.0065205 34.3237 0.274551L26.0602 8.53804C25.8844 8.71382 25.7856 8.95222 25.7856 9.20085V12.4526C23.0818 10.6839 19.9647 9.75538 16.6851 9.75538C7.48499 9.75538 0 17.2404 0 26.4405C0 35.6406 7.48499 43.1256 16.6851 43.1256C19.7387 43.1256 22.7262 42.2928 25.3245 40.7175C25.7671 40.4491 25.9083 39.8726 25.64 39.4299C25.3717 38.9873 24.7952 38.8459 24.3525 39.1144C22.0473 40.5121 19.396 41.2508 16.6851 41.2508C8.51867 41.2508 1.87472 34.607 1.87472 26.4404C1.87472 18.2739 8.51867 11.63 16.6851 11.63C20.0198 11.63 23.1649 12.7108 25.7856 14.7556V16.0142L24.0774 17.7224C22.0825 16.0283 19.5014 15.0044 16.6851 15.0044C10.3793 15.0044 5.24924 20.1345 5.24924 26.4403C5.24924 32.7461 10.3793 37.8762 16.6851 37.8762C22.9909 37.8762 28.121 32.7461 28.121 26.4403C28.121 23.6242 27.0973 21.043 25.403 19.048L27.118 17.3331H28.365C30.3858 19.9229 31.4954 23.1446 31.4954 26.4403C31.4954 29.2038 30.7296 31.8992 29.2808 34.235C29.0079 34.6748 29.1434 35.2527 29.5834 35.5256C29.7373 35.621 29.9079 35.6665 30.0765 35.6665C30.3902 35.6665 30.6966 35.5091 30.8741 35.2232C32.5072 32.5904 33.3702 29.5534 33.3702 26.4403C33.3702 23.2025 32.4192 20.0278 30.6657 17.3331H33.9179C34.1666 17.3331 34.4049 17.2343 34.5807 17.0585L42.8442 8.795C43.1125 8.52725 43.1927 8.12404 43.0477 7.77379ZM26.2465 26.4405C26.2465 31.7125 21.9573 36.0017 16.6853 36.0017C11.4133 36.0017 7.12414 31.7125 7.12414 26.4405C7.12414 21.1685 11.4133 16.8793 16.6853 16.8793C18.9845 16.8793 21.0965 17.6952 22.7476 19.0525L20.6128 21.1874C19.5171 20.3661 18.1571 19.879 16.6854 19.879C13.0673 19.879 10.1239 22.8225 10.1239 26.4405C10.1239 30.0586 13.0674 33.0021 16.6854 33.0021C20.3035 33.0021 23.247 30.0585 23.247 26.4405C23.247 24.9688 22.7598 23.6088 21.9385 22.513L24.0734 20.3782C25.4306 22.0293 26.2465 24.1413 26.2465 26.4405ZM16.0225 27.1034C16.2056 27.2865 16.4454 27.378 16.6853 27.378C16.9252 27.378 17.165 27.2865 17.3481 27.1034L20.5936 23.8579C21.085 24.599 21.3721 25.4867 21.3721 26.4405C21.3721 29.0248 19.2696 31.1273 16.6853 31.1273C14.101 31.1273 11.9985 29.0248 11.9985 26.4405C11.9985 23.8562 14.101 21.7537 16.6853 21.7537C17.6392 21.7537 18.5268 22.0408 19.268 22.5322L16.0225 25.7777C15.6564 26.1437 15.6564 26.7372 16.0225 27.1034ZM27.6605 14.1396V9.58916L34.0492 3.20048V7.75091L27.6605 14.1396ZM33.5299 15.4586H28.993L35.3817 9.06988H39.9186L33.5299 15.4586Z" fill="#FF3F3A"/>
</svg>
