<svg width="16" height="16" viewBox="0 0 16 16" fill="none" xmlns="http://www.w3.org/2000/svg">
<path fill-rule="evenodd" clip-rule="evenodd" d="M5.00016 0.833008C5.36835 0.833008 5.66683 1.13148 5.66683 1.49967V1.83302L10.3335 1.83303V1.49967C10.3335 1.13148 10.632 0.833008 11.0002 0.833008C11.3684 0.833008 11.6668 1.13148 11.6668 1.49967V1.83303L12.5002 1.83303C13.9729 1.83303 15.1668 3.02694 15.1668 4.4997V12.4997C15.1668 13.9724 13.9729 15.1663 12.5002 15.1663L3.50016 15.1663C2.0274 15.1663 0.833496 13.9724 0.833496 12.4997L0.833496 5.9998L0.833496 4.49968C0.833496 3.02692 2.02741 1.83301 3.50017 1.83301L4.3335 1.83301V1.49967C4.3335 1.13148 4.63197 0.833008 5.00016 0.833008ZM4.3335 3.16635L3.50017 3.16634C2.76378 3.16634 2.16683 3.7633 2.16683 4.49968V5.33301H13.8335V4.4997C13.8335 3.76332 13.2365 3.16636 12.5002 3.16636L11.6668 3.16636V3.49967C11.6668 3.86786 11.3684 4.16634 11.0002 4.16634C10.632 4.16634 10.3335 3.86786 10.3335 3.49967V3.16636L5.66683 3.16635V3.49967C5.66683 3.86786 5.36835 4.16634 5.00016 4.16634C4.63197 4.16634 4.3335 3.86786 4.3335 3.49967V3.16635ZM13.8335 6.66634H2.16683L2.16683 12.4997C2.16683 13.2361 2.76378 13.833 3.50016 13.833L12.5002 13.833C13.2365 13.833 13.8335 13.2361 13.8335 12.4997V6.66634Z" fill="#787A80"/>
</svg>
