<svg width="16" height="16" viewBox="0 0 16 16" fill="none" xmlns="http://www.w3.org/2000/svg">
<path d="M8.6665 4.33366C8.6665 3.96547 8.36803 3.66699 7.99984 3.66699C7.63165 3.66699 7.33317 3.96547 7.33317 4.33366V8.00033C7.33317 8.17714 7.40341 8.34671 7.52843 8.47173L9.52843 10.4717C9.78878 10.7321 10.2109 10.7321 10.4712 10.4717C10.7316 10.2114 10.7316 9.78927 10.4712 9.52892L8.6665 7.72418V4.33366Z" fill="#787A80"/>
<path fill-rule="evenodd" clip-rule="evenodd" d="M7.99984 0.666992C3.94975 0.666992 0.666504 3.95024 0.666504 8.00033C0.666504 12.0504 3.94975 15.3337 7.99984 15.3337C12.0499 15.3337 15.3332 12.0504 15.3332 8.00033C15.3332 3.95024 12.0499 0.666992 7.99984 0.666992ZM1.99984 8.00033C1.99984 4.68662 4.68613 2.00033 7.99984 2.00033C11.3135 2.00033 13.9998 4.68662 13.9998 8.00033C13.9998 11.314 11.3135 14.0003 7.99984 14.0003C4.68613 14.0003 1.99984 11.314 1.99984 8.00033Z" fill="#787A80"/>
</svg>
